<svg xmlns="http://www.w3.org/2000/svg" xmlns:xlink="http://www.w3.org/1999/xlink" xml:space="preserve" width="512" height="512" viewBox="0 0 135.46666 135.46667"><defs><radialGradient xlink:href="#a" id="b" cx="29.269913" cy="98.213943" r="29.00181" fx="29.269913" fy="98.213943" gradientTransform="matrix(-2.6748227 .05539715 -.05255855 -2.5377592 122.56421 331.0187)" gradientUnits="userSpaceOnUse"/><linearGradient id="a"><stop offset="0" style="stop-color:#f3f8f8;stop-opacity:1"/><stop offset=".3403922" style="stop-color:#e5e5e5;stop-opacity:1"/><stop offset=".54177868" style="stop-color:#d6d6d6;stop-opacity:1"/><stop offset=".82097137" style="stop-color:#cecece;stop-opacity:1"/><stop offset="1" style="stop-color:#c7c7c7;stop-opacity:1"/></linearGradient></defs><g style="display:inline;opacity:1;stroke:#000;stroke-opacity:1"><path d="M45.635238 40.074828c.298533-1.366077 1.66861-4.128405 4.917971-5.117351l12.361392.04431.0443 4.23123-4.740746 5.183807c.894156.172221 1.632609.690345 2.370373 1.196263 1.735877 1.174865 2.671352 3.07181 3.278648 5.02874l.06646 1.77224-.110765 1.484254c-.49172 2.024733-1.488857 3.609491-3.057118 4.98443-1.568711 1.212285-3.426146 1.484206-5.338878 1.750091-5.259382-.03063-9.663434-2.832019-10.987903-7.664953-.01888-.428492-.03971-.856815-.06646-1.284874h5.516102c.262593 1.20042.534513 1.590949.974735 2.104538.396858.59865 1.393447 1.052523 2.015924 1.329182.988265.354589 2.036346.172698 3.034967-.02215 1.665921-.556113 2.405944-2.236187 2.082386-3.854627-.206183-.657222-1.225138-1.826751-2.83559-2.303918-.670987-.06541-1.433868-.08861-3.278647-.08861-.296391-.344067-.535644-.724111-.775357-1.107651-.07666-.81743-.03214-1.639376-.02215-2.458988l4.652134-5.117348z" style="display:inline;fill:#fff;fill-opacity:1;stroke:#000;stroke-width:1.71979165;stroke-linecap:butt;stroke-linejoin:miter;stroke-dasharray:none;stroke-opacity:1"/><path d="M108.64936 17.356329 50.382371 46.489823l-7.273513 3.636756L21.17848 90.79177l87.44873-20.891143Z" style="display:inline;opacity:1;fill:#232035;fill-opacity:1;stroke:#000;stroke-width:.264583px;stroke-linecap:butt;stroke-linejoin:miter;stroke-opacity:1"/><path d="M108.52405 69.989239c-10.104627-7.522001-20.757543-14.320696-30.702534-22.055696-4.519806 5.187292-9.436128 9.893559-14.599366 14.411391-.18509.244437-1.065189 1.477362-1.065189 2.81962.466584 2.223619 1.518241 4.242596 2.506329 6.265823l2.255695 1.817089c2.054383 2.084085 4.146595 4.465103 13.346202 16.103163l16.353798-11.153163Z" style="display:inline;opacity:1;fill:#37a1de;fill-opacity:1;stroke:#000;stroke-width:.264583px;stroke-linecap:butt;stroke-linejoin:miter;stroke-opacity:1"/><path d="m78.731863 82.232041 11.120818-10.45623 7.443417 6.468684z" style="display:inline;opacity:1;fill:#eeab19;stroke:#000;stroke-width:.264583px;stroke-linecap:butt;stroke-linejoin:miter;stroke-opacity:1;fill-opacity:1"/><path d="M20.990505 90.854428 60.40253 110.0905l24.937974-14.411389-12.970253-16.103164-3.634177-4.511391c-2.657679-3.363116-6.492496-5.012616-10.213292-6.829748l-22.306327-5.075317Z" style="display:inline;fill:#e63e41;fill-opacity:1;stroke:#000;stroke-width:.264583px;stroke-linecap:butt;stroke-linejoin:miter;stroke-opacity:1"/><path d="m103.38216 76.689753.0946 15.488997-44.296095 9.48422c2.392545-2.842272 5.183307-5.360664 7.456329-8.302213 1.936506-2.718519 2.78269-5.993169 2.443669-9.304747l9.296913-1.950239z" style="display:inline;fill:#201e33;fill-opacity:1;stroke:#000;stroke-width:.264583px;stroke-linecap:butt;stroke-linejoin:miter;stroke-opacity:1"/></g><g style="display:inline"><path d="M45.635238 40.074828c.298533-1.366077 1.66861-4.128405 4.917971-5.117351l12.361392.04431.0443 4.23123-4.740746 5.183807c.894156.172221 1.632609.690345 2.370373 1.196263 1.735877 1.174865 2.671352 3.07181 3.278648 5.02874l.06646 1.77224-.110765 1.484254c-.49172 2.024733-1.488857 3.609491-3.057118 4.98443-1.568711 1.212285-3.426146 1.484206-5.338878 1.750091-5.259382-.03063-9.663434-2.832019-10.987903-7.664953-.01888-.428492-.03971-.856815-.06646-1.284874h5.516102c.262593 1.20042.534513 1.590949.974735 2.104538.396858.59865 1.393447 1.052523 2.015924 1.329182.988265.354589 2.036346.172698 3.034967-.02215 1.665921-.556113 2.405944-2.236187 2.082386-3.854627-.206183-.657222-1.225138-1.826751-2.83559-2.303918-.670987-.06541-1.433868-.08861-3.278647-.08861-.296391-.344067-.535644-.724111-.775357-1.107651-.07666-.81743-.03214-1.639376-.02215-2.458988l4.652134-5.117348z" style="display:inline;fill:#fff;fill-opacity:1;stroke:#232035;stroke-width:1.32292;stroke-linecap:butt;stroke-linejoin:miter;stroke-dasharray:none;stroke-opacity:1"/><path d="M70.712467 96.808733V85.244852l2.79128-.620284 3.101424 5.228113 3.057118-6.579449 2.791283-.509519.08861 11.608187-2.924199.553825.02215-5.870551-2.015924 4.3863-1.993773.354446-1.949466-3.367259-.02214 5.914858zM83.317539 94.216827l3.034964-12.383542 3.167883-.664591 3.190036 11.076514-2.879894.553826-.509519-1.55071-2.56975.487365-.376602 1.81655z" style="fill:#fff;fill-opacity:1;stroke:none;stroke-width:.264583px;stroke-linecap:butt;stroke-linejoin:miter;stroke-opacity:1"/><path d="m87.34939 88.900102.598133-3.345108.863967 3.123578z" style="fill:#201e33;fill-opacity:1;stroke:none;stroke-width:.264583px;stroke-linecap:butt;stroke-linejoin:miter;stroke-opacity:1"/><path d="m93.463625 92.067985.02215-11.763259 2.503292-.509518 2.63621 4.873664.110766-5.405337 2.724817-.642437.0665 11.785409-2.724827.443061-2.48114-4.60783.02214 5.205963z" style="fill:#fff;fill-opacity:1;stroke:none;stroke-width:.264583px;stroke-linecap:butt;stroke-linejoin:miter;stroke-opacity:1"/></g><g style="display:inline"><g style="stroke:#000;stroke-opacity:1"><path d="M53.917402 106.72262c2.727971-2.42253 11.4454-11.595782 12.89613-13.569137 1.970029-2.816043 2.589237-5.882092 2.215305-9.060588-.13567-1.679601-.705108-3.151119-1.329181-4.696441-1.589886-4.383571-3.631315-10.212791-5.731243-15.42099-1.578908-3.915974-4.710215-6.965012-9.022672-7.68462l-12.450003-.642437c-4.890305-.524313-10.259972 2.054299-11.652494 3.145732l-1.307028 1.085498-6.756673 5.316728-3.588791 2.879894-1.727936 1.462098c-5.283487 3.62734-3.956324 9.860614-3.832478 10.389772l.531672 1.572863c4.065691 7.156808 9.041303 22.260248 18.054719 24.146798l3.079271.88612 7.576335 2.30391c5.817826 2.41925 12.100199-1.49036 13.045067-2.1152z" style="display:inline;fill:url(#b);fill-opacity:1;stroke:#000;stroke-width:.264583px;stroke-linecap:butt;stroke-linejoin:miter;stroke-opacity:1"/><g style="fill:#6bffff;fill-opacity:1;stroke:#000;stroke-opacity:1"><path d="M38.205854 88.207118c4.341944 8.032599 6.193767 12.223092 7.9106 16.432122 1.490533 3.29136-1.057599 5.33885-5.554263 3.93821-3.741803-1.09491-7.493918-2.15524-11.253808-3.18639-4.573514-1.56682-7.54697-5.871831-8.349209-7.150871-1.802073-3.189186-4.044582-7.340429-8.772151-16.847232-.872642-1.898137-.944372-5.022932 1.801424-4.621043.977413.08908 5.134792.680599 11.701423 2.130378 5.595529 1.579314 9.198258 4.74255 12.515984 9.304826z" style="display:inline;fill:#c7c7c7;fill-opacity:1;stroke:#000;stroke-width:.264583px;stroke-linecap:butt;stroke-linejoin:miter;stroke-opacity:1"/><path d="M42.999027 72.684086c5.021314-4.591857 4.848191-4.6774 11.275891-10.434076 2.791162-2.499777 6.37345-.930568 7.46557 1.550714 1.349517 3.066086 3.743862 9.326425 3.743862 9.326425l2.392527 6.623753c2.230711 5.668696 1.334116 9.181133-.974735 13.22536l-2.015924 2.436833-2.148845 2.303915-3.876778 4.18692s-2.253001 2.31079-3.411567 3.43372c-.217593.2109-.664591.62028-.664591.62028-3.182462 2.17381-6.341405.5887-7.886478-2.08242-2.576625-4.454473-4.394187-9.302322-6.535144-13.978559-3.589552-7.79675.150568-14.851588 2.636212-17.212865z" style="display:inline;fill:#f3f8f8;fill-opacity:1;stroke:#000;stroke-width:.264583px;stroke-linecap:butt;stroke-linejoin:miter;stroke-opacity:1"/><path d="m14.192088 75.879112 11.717088 2.036392c5.732825.502874 10.851046.166263 16.713251-6.051083 2.638023-2.797839 8.855965-7.324631 12.627226-12.051247.824248-2.278559.134569-3.003826-3.704358-3.439534-1.882899-.213704-3.868726-.293908-5.466997-.370786l-6.06993-.310142c-3.969656-.355398-8.614416 1.363615-11.430961 3.322948-4.77022 3.987692-9.771687 7.678325-14.399469 11.829717-2.890969 2.202027-1.778163 4.581531.01415 5.033735z" style="display:inline;fill:#e5e5e5;fill-opacity:1;stroke:#000;stroke-width:.264583px;stroke-linecap:butt;stroke-linejoin:miter;stroke-opacity:1"/></g><g style="stroke:#000;stroke-opacity:1;stroke-width:.26458333;stroke-dasharray:none"><g style="stroke:#000;stroke-opacity:1;stroke-width:.26458333;stroke-dasharray:none"><ellipse cx="62.537014" cy="93.942894" rx="2.5775647" ry="3.9235113" style="display:inline;fill:#eeab19;fill-opacity:1;fill-rule:nonzero;stroke:#000;stroke-width:.26527952;stroke-miterlimit:4;stroke-dasharray:none;stroke-opacity:1" transform="matrix(.99311466 -.1171464 .01498109 .99988778 0 0)"/><ellipse cx="54.384777" cy="90.097221" rx="2.7022951" ry="3.9547882" style="display:inline;fill:#eeab19;fill-opacity:1;fill-rule:nonzero;stroke:#000;stroke-width:.265211;stroke-miterlimit:4;stroke-dasharray:none;stroke-opacity:1" transform="matrix(.99363712 -.11262895 .01559002 .99987847 0 0)"/><ellipse cx="45.315933" cy="86.921349" rx="2.797014" ry="4.1109867" style="display:inline;fill:#eeab19;fill-opacity:1;fill-rule:nonzero;stroke:#000;stroke-width:.26521819;stroke-miterlimit:4;stroke-dasharray:none;stroke-opacity:1" transform="matrix(.99358216 -.11311272 .0155225 .99987952 0 0)"/></g><g style="stroke:#000;stroke-opacity:1;stroke-width:.26458333;stroke-dasharray:none" transform="matrix(.47620206 -.87933588 .76446481 .64466546 0 0)"><ellipse cx="-48.569942" cy="71.743622" rx="2.034575" ry="3.8643563" style="display:inline;fill:#201e33;fill-opacity:1;fill-rule:nonzero;stroke:#000;stroke-width:.26737699;stroke-miterlimit:4;stroke-dasharray:none;stroke-opacity:1"/><ellipse cx="-59.387867" cy="71.097717" rx="2.034575" ry="3.8643563" style="display:inline;fill:#201e33;fill-opacity:1;fill-rule:nonzero;stroke:#000;stroke-width:.26737699;stroke-miterlimit:4;stroke-dasharray:none;stroke-opacity:1"/></g><ellipse cx="90.937721" cy="60.336109" rx="2.3609767" ry="3.8060169" style="display:inline;opacity:1;fill:#e63e41;fill-opacity:1;fill-rule:nonzero;stroke:#000;stroke-width:.29471783;stroke-miterlimit:4;stroke-dasharray:none;stroke-opacity:1" transform="matrix(.93219764 .3619497 -.8435523 .53704706 0 0)"/></g></g><g style="stroke:#000;stroke-opacity:1"><path d="M83.804904 73.747431c1.668485.03335 2.355931-.150342 6.823134-1.617184 4.610225-1.638799 9.423762-3.124548 13.801332-4.962279 2.59371-1.205241 4.79471-3.065402 6.5573-5.294574 5.02452-6.865026 7.01598-9.723137 8.30739-11.696798l.66459-1.439947c.97224-3.407277-.2205-6.994355-.81972-8.462457-.43311-.966796-1.02915-1.82781-1.61717-2.702668l-9.37073-13.956409c-1.91138-3.00102-5.20011-4.120703-8.551069-4.341993-3.109852.149222-6.101688 1.097537-9.082741 1.927314-3.675803 1.216644-7.469819 2.084206-11.032206 3.610944l-1.550713.609208c-1.976302.757605-4.893404 3.238168-6.368997 5.222576-.430308.700015-.855026 1.403118-1.273796 2.110076-2.336421 4.847224-1.088586 2.687722-4.641403 10.183296-.348715.77749-.534488 1.584593-.704906 2.412342-.776624 3.463293.47174 6.771494 2.193032 9.712026 2.878972 4.70775 5.783385 9.400017 8.678164 14.0981 1.185819 2.159096 4.933472 4.588427 7.988509 4.588427z" style="display:inline;fill:#fff;fill-opacity:1;stroke:#000;stroke-width:.264583px;stroke-linecap:butt;stroke-linejoin:miter;stroke-opacity:1"/><g style="fill:#bff;fill-opacity:1;stroke:#000;stroke-opacity:1"><path d="M86.139395 48.027531c2.218281 3.296692 2.840132 7.088307 2.859379 9.430121.0088 1.067674-.256608 1.833991-.290392 2.114655-3.093559 5.918602-3.121848 5.940531-6.359808 11.356803-.633998.710032-3.043221 2.765779-6.56345-2.005064-1.798587-3.329452-4.281166-7.003881-6.624474-10.718007-1.162537-1.842613-2.483901-3.695031-3.26462-5.599685-.692995-1.690642-1.208174-3.445581-1.198518-5.205648.0091-1.658355.498192-3.317745 1.297269-5.043747 1.386418-3.079014 2.761354-6.163206 4.182435-9.226423.545763-1.449657 3.173697-3.012171 5.874206.01566 3.515144 4.857748 6.741773 9.909827 10.087973 14.881335z" style="display:inline;fill:#e5e5e5;fill-opacity:1;stroke:#000;stroke-width:.264583px;stroke-linecap:butt;stroke-linejoin:miter;stroke-opacity:1"/><path d="M101.12857 51.550096c2.11392-.572637 10.09888-3.022477 15.28559-5.073044 1.92194-.781744 3.89836-3.514524 2.09346-7.288345-3.10912-5.201165-6.70404-10.082937-10.11285-15.086212-2.85982-4.510257-7.89838-4.79397-9.858101-4.718589-1.485268.106074-3.879313.732617-7.155429 1.617169l-10.057474 3.101424c-1.970228.669135-3.418494 1.975581-4.386299 3.766014-.60726 1.734655-.09906 3.345947.398754 5.006584.670046 1.483413 1.600647 2.81845 2.503292 4.164769 2.336748 3.405674 4.385367 7.002371 6.873929 10.30116 3.189798 5.120433 10.777759 5.334941 14.415128 4.20907z" style="display:inline;fill:#f3f8f8;fill-opacity:1;stroke:#000;stroke-width:.264583px;stroke-linecap:butt;stroke-linejoin:miter;stroke-opacity:1"/><path d="M83.719222 70.537498c1.862564-3.435074 3.726133-6.855266 6.000541-10.037577 2.754597-3.374384 5.443601-5.195237 9.304274-7.244041 4.154533-1.593521 15.069583-5.307092 17.523043-6.025623 2.31201-.536989 4.04844-.14011 2.83559 2.702664-2.68523 4.013412-3.97335 5.886033-8.70614 12.228473-1.73587 2.121617-2.3217 2.638465-6.36441 5.019562l-1.50863.681366c-4.164123 1.478853-12.561435 4.420791-16.938352 5.730032-4.25076.531347-2.254301-2.874635-2.145916-3.054856z" style="display:inline;fill:#c7c7c7;fill-opacity:1;stroke:#000;stroke-width:.264583px;stroke-linecap:butt;stroke-linejoin:miter;stroke-opacity:1"/></g><g style="stroke:#000;stroke-opacity:1;stroke-width:.26458333;stroke-dasharray:none"><g style="fill:#cf9415;fill-opacity:1;stroke:#000;stroke-opacity:1;stroke-width:.26458333;stroke-dasharray:none"><ellipse cx="83.528336" cy="17.029919" rx="2.6441808" ry="3.5451918" style="display:inline;fill:#eeab19;fill-opacity:1;fill-rule:nonzero;stroke:#000;stroke-width:.27888684;stroke-miterlimit:4;stroke-dasharray:none;stroke-opacity:1" transform="matrix(.90671315 .42174787 .01552853 .99987943 0 0)"/><ellipse cx="75.281281" cy="17.971468" rx="2.6441808" ry="3.5451918" style="display:inline;fill:#eeab19;fill-opacity:1;fill-rule:nonzero;stroke:#000;stroke-width:.27888684;stroke-miterlimit:4;stroke-dasharray:none;stroke-opacity:1" transform="matrix(.90671315 .42174787 .01552853 .99987943 0 0)"/><ellipse cx="93.637848" cy="13.809585" rx="2.7371278" ry="3.8141487" style="display:inline;fill:#eeab19;fill-opacity:1;fill-rule:nonzero;stroke:#000;stroke-width:.2801089;stroke-miterlimit:4;stroke-dasharray:none;stroke-opacity:1" transform="matrix(.89880901 .43834046 .01481064 .99989032 0 0)"/></g><g style="display:inline;stroke:#000;stroke-opacity:1;stroke-width:.26458333;stroke-dasharray:none" transform="matrix(.94927023 .3144615 -.22852106 .97353897 0 0)"><ellipse cx="91.474648" cy="2.1155057" rx="4.053381" ry="2.9128675" style="fill:#e63e41;fill-opacity:1;fill-rule:nonzero;stroke:#000;stroke-width:.26511241;stroke-miterlimit:4;stroke-dasharray:none;stroke-opacity:1"/><ellipse cx="117.42042" cy="3.0263553" rx="4.053381" ry="2.9128675" style="display:inline;fill:#e63e41;fill-opacity:1;fill-rule:nonzero;stroke:#000;stroke-width:.26511241;stroke-miterlimit:4;stroke-dasharray:none;stroke-opacity:1"/></g><ellipse cx="114.87857" cy="-8.3638773" rx="1.5297307" ry="4.2511353" style="display:inline;fill:#201e33;fill-opacity:1;fill-rule:nonzero;stroke:#000;stroke-width:.27530206;stroke-miterlimit:4;stroke-dasharray:none;stroke-opacity:1" transform="matrix(.81925963 .57342275 -.8436168 .53694572 0 0)"/></g></g></g></svg>